<?xml version="1.0" encoding="UTF-8"?>
<svg width="588px" height="612px" viewBox="0 0 588 612" version="1.1" xmlns="http://www.w3.org/2000/svg" xmlns:xlink="http://www.w3.org/1999/xlink">
    <!-- Generator: Sketch 52.5 (67469) - http://www.bohemiancoding.com/sketch -->
    <title>Untitled</title>
    <desc>Created with Sketch.</desc>
    <g id="Page-1" stroke="none" stroke-width="1" fill="none" fill-rule="evenodd" fill-opacity="0.25">
        <g id="delivery-packaging-box" fill="#0E597C" fill-rule="nonzero">
            <path d="M293.058,329.286 L293.058,570.82 L485.351,534.329 L485.351,416.644 C485.351,411.718 489.642,407.892 494.536,408.454 L518.194,412.115 C522.356,412.593 525.499,416.116 525.499,420.305 L525.499,557.022 C525.499,560.907 522.786,564.265 518.987,565.083 L308.487,610.344 C298.315,612.532 287.796,612.555 277.614,610.413 L69.373,566.609 C65.635,565.823 62.927,562.572 62.828,558.755 L59.23,419.907 C59.118,415.553 62.411,411.861 66.751,411.48 L243.637,395.937 C246.705,395.668 249.367,393.711 250.539,390.863 L277.187,326.147 C280.628,317.796 293.058,320.254 293.058,329.286 Z M57.23,250.204 L1.721,368.855 C-0.992,374.653 3.649,381.195 10.018,380.552 L218.482,359.488 C221.428,359.19 223.987,357.336 225.189,354.63 L292.264,203.519 L63.208,245.589 C60.587,246.071 58.36,247.79 57.23,250.204 Z M292.264,203.518 L363.24,359.355 C364.48,362.078 367.099,363.916 370.082,364.156 L578.151,380.888 C584.422,381.393 588.924,374.972 586.314,369.248 L532.05,250.284 C530.928,247.824 528.67,246.071 526.009,245.592 L292.264,203.518 Z M233.942,80.473 L285.457,169.68 C289.424,176.549 299.339,176.548 303.305,169.68 L354.809,80.473 C358.776,73.603 353.818,65.016 345.886,65.016 L320.138,65.016 L320.138,10.306 C320.138,4.614 315.525,0 309.833,0 L278.919,0 C273.228,0 268.614,4.614 268.614,10.305 L268.614,65.015 L242.865,65.015 C234.933,65.015 229.975,73.603 233.942,80.473 Z" id="Shape"></path>
        </g>
    </g>
</svg>