<?xml version="1.0" encoding="UTF-8"?>
<svg width="432px" height="432px" viewBox="0 0 432 432" version="1.1" xmlns="http://www.w3.org/2000/svg" xmlns:xlink="http://www.w3.org/1999/xlink">
    <!-- Generator: Sketch 52.5 (67469) - http://www.bohemiancoding.com/sketch -->
    <title>Untitled</title>
    <desc>Created with Sketch.</desc>
    <g id="Page-1" stroke="none" stroke-width="1" fill="none" fill-rule="evenodd">
        <g id="download" transform="translate(58.000000, 58.000000)">
            <path d="M256.859161,288.56146 L261.120224,295.936911 L231.918931,312.769527 L219.806615,291.753152 C207.909792,297.010295 195.155064,300.661428 181.814846,302.417875 L181.818912,327 L148.112602,326.983737 L148.128865,302.779735 C134.743923,301.303832 121.907877,297.941375 109.917538,292.94038 L97.6100591,314.257628 L68.4372272,297.392485 L80.6105316,276.343583 C69.9863351,268.508691 60.4924588,259.218225 52.4541747,248.764927 L31.0594094,261.121043 L14.2306497,231.920113 L35.2513522,219.807948 C30.0022754,207.907207 26.3510973,195.160769 24.6027603,181.820717 L0,181.824783 L0.0203294995,148.122958 L24.2408952,148.139221 L58.4188499,148.334382 C57.479627,153.376035 57.2682002,158.218462 57.2682002,163.495934 C57.2682002,222.007572 104.989667,269.72438 163.502033,269.72438 C189.21885,269.72438 212.84986,260.490836 231.268387,245.186979 L256.859161,288.56146 Z M178.858937,24.2568572 C192.243879,25.7286947 205.075859,29.095218 217.062132,34.088081 L229.377743,12.7423719 L258.562773,29.6115808 L246.373205,50.6808122 C256.993335,58.5075722 266.475014,67.7980379 274.525496,78.2472708 L295.932459,65.8789571 L312.76935,95.0758213 L291.73645,107.200184 C296.985527,119.096859 300.640771,131.843297 302.39724,145.183349 L327,145.179283 L326.979671,176.726208 L268.902356,176.726208 C269.451253,172.392013 269.735866,167.9765 269.735866,163.504066 C269.735866,104.996494 222.014399,57.2796857 163.506099,57.2796857 C137.838073,57.2796857 114.243656,66.4603735 95.8454585,81.7154403 L66.1481256,31.388357 L66.0627417,31.388357 L65.8797762,31.0671549 L95.0729375,14.2304727 L107.201517,35.2671773 C119.094274,30.0140999 131.849002,26.3710989 145.181088,24.614652 L145.177022,0 L178.883332,0.0243950961 L178.858937,24.2568572 Z" id="Shape" fill="#E3000F"></path>
            <path d="M217.908986,147.84597 C214.171131,134.018989 207.660422,123.304911 198.397218,115.76884 C189.138086,108.171732 178.11182,104.379282 165.204411,104.379282 C151.991621,104.379282 140.541894,108.27753 130.814512,116.025197 C128.082376,118.230677 125.578257,120.6681 123.314371,123.325256 L107.597463,96.70486 C114.425767,90.4220884 121.889263,85.4984137 129.983878,81.9175594 C140.444172,77.2909329 151.893899,75 164.271983,75 C178.999459,75 192.680498,78.4343648 205.376177,85.2990252 C218.018923,92.1636857 228.426285,101.730263 236.700056,114.002828 C241.537281,121.644696 245.181487,129.962044 247.518664,139.064739 C249.859913,148.167433 251,158.564118 251,170.210033 L251,174.942457 L109.84099,174.942457 C112.39397,188.928135 118.745881,200.317693 128.835648,209.001264 C138.929486,217.684836 150.945185,221.998138 164.890887,221.998138 C174.825927,221.998138 183.881472,219.609545 192.102311,214.824222 C197.18384,211.886294 201.613891,208.15895 205.416894,203.662536 L221.365892,230.665433 C218.792553,233.041818 216.101134,235.226953 213.275348,237.233045 C199.38665,247.064118 183.254425,252 164.890887,252 C152.451728,252 141.160798,249.818934 130.863373,245.448664 C120.610737,241.082464 111.347533,234.527059 102.971969,225.794657 C95.166447,217.574969 89.030338,208.01246 84.6084306,197.090855 C80.1865233,186.173318 78,175.044186 78,163.654628 C78,158.246724 78.4275325,153.001586 79.274454,147.923284 L137.83826,147.919215 L137.797543,147.84597 L217.908986,147.84597 Z" id="Path" fill="#203981"></path>
        </g>
        <g id="search">
            <path d="M216,0 C96.4807013,0 0,96.4807013 0,216 C0,335.519299 96.4807013,432 216,432 C335.519299,432 432,335.519299 432,216 C432,96.4807013 335.520536,0 216,0 Z M216,388.801238 C120.959752,388.801238 43.2,311.041485 43.2,216.001238 C43.2,120.96099 120.959752,43.2 216,43.2 C311.040248,43.2 388.8,120.959752 388.8,216 C388.8,311.040248 311.040248,388.801238 216,388.801238 Z" id="Shape" fill="#C4D7E5" fill-rule="nonzero"></path>
            <circle id="Oval" fill-opacity="0.4" fill="#70B7E5" cx="222" cy="222" r="173"></circle>
            <path d="M133.307024,241.68076 C140.669063,185.708631 184.842562,141.520042 240.795578,134.155488 L242.268492,134.155488 C267.300437,131.20992 268.772085,95.8580357 245.213054,91.440316 C230.488976,88.4947476 215.763633,88.4947476 201.039554,89.9668989 C143.613625,98.8048699 97.9672117,144.466876 90.6051727,200.439005 C87.6606101,215.168112 89.1322587,231.370637 92.0780866,244.627594 C96.4955631,269.66809 131.83411,266.722521 134.778672,241.682025 C133.307024,243.154177 133.307024,241.68076 133.307024,241.68076 Z" id="Path" fill-opacity="0.5" fill="#92C5EB"></path>
            <path d="M54.5710112,229.428154 C54.5710112,133.256475 133.256475,54.5710112 229.428154,54.5710112 C274.600042,54.5710112 313.942774,72.0572263 346,98.2852969 C313.942774,61.8565167 267.314536,40 214.857143,40 C118.685464,40 40,118.685464 40,214.857143 C40,267.314536 63.3141187,313.942774 98.2852969,346 C72.0572263,313.942774 54.5710112,274.600042 54.5710112,229.428154 Z" id="Path" fill="#4C9CD6"></path>
            <path d="M210,432 C332.840551,432 432,332.839279 432,210 C424.600212,210 417.200424,215.920594 417.200424,224.799576 C414.240763,275.12017 392.040127,320.999364 358.000848,355.039915 C323.960297,390.559661 276.600636,412.760297 224.800848,417.200424 C215.920594,417.200424 210,424.600212 210,432 Z" id="Path" fill="#B0C9DB"></path>
            <path d="M222,0 C99.1607207,0 0,99.1607207 0,222 C7.39978802,222 14.799576,216.079406 14.799576,207.200424 C17.7605088,158.360297 38.4806783,113.960297 69.5602968,81.400212 C105.080042,44.4 153.92017,19.2397032 207.200424,14.799576 C216.080678,14.799576 222,7.39978802 222,0 Z" id="Path" fill="#E2E7F0"></path>
        </g>
    </g>
</svg>